<svg xmlns="http://www.w3.org/2000/svg" width="1200" height="630" viewBox="0 0 1200 630">
  <defs>
    <linearGradient id="bg" x1="0" y1="0" x2="1" y2="1">
      <stop offset="0%" stop-color="#0d0d0f"/>
      <stop offset="100%" stop-color="#1a1a1f"/>
    </linearGradient>
    <linearGradient id="orangeGlow" x1="0" y1="0" x2="1" y2="1">
      <stop offset="0%" stop-color="#ff6a00" stop-opacity="0.95"/>
      <stop offset="100%" stop-color="#e04400" stop-opacity="0.95"/>
    </linearGradient>
    <radialGradient id="spot" cx="50%" cy="40%" r="60%">
      <stop offset="0%" stop-color="#ffffff" stop-opacity="0.16"/>
      <stop offset="100%" stop-color="#ffffff" stop-opacity="0"/>
    </radialGradient>
  </defs>
  <rect width="1200" height="630" fill="url(#bg)"/>
  <rect x="-60" y="-50" width="520" height="760" transform="rotate(-15 200 250)" fill="url(#orangeGlow)" opacity="0.9"/>
  <rect x="760" y="70" width="360" height="490" rx="28" fill="#f5f4f2" opacity="0.08"/>
  <ellipse cx="840" cy="490" rx="210" ry="42" fill="#000" opacity="0.28"/>
  <ellipse cx="920" cy="460" rx="170" ry="34" fill="#000" opacity="0.22"/>
  <circle cx="430" cy="130" r="260" fill="url(#spot)"/>
  <circle cx="1000" cy="110" r="220" fill="url(#spot)"/>
  <g transform="translate(112 140)">
    <circle cx="82" cy="82" r="72" fill="none" stroke="#ff6a00" stroke-width="12"/>
    <circle cx="82" cy="82" r="28" fill="#ff6a00"/>
    <rect x="68" y="0" width="28" height="164" rx="5" fill="#1a1a1f" transform="rotate(-14 82 82)"/>
    <path d="M 0 146 Q 82 188 164 146" fill="none" stroke="#1b2b6b" stroke-width="12" stroke-linecap="round"/>
  </g>
  <text x="260" y="160" fill="#f5f4f2" font-family="Barlow Condensed, Arial, sans-serif" font-size="76" font-weight="800" letter-spacing="4">IMPACT PACKAGING SOLUTIONS</text>
  <text x="260" y="224" fill="#b0b0b0" font-family="DM Sans, Arial, sans-serif" font-size="30" font-weight="500">Flexible packaging manufacturer in India</text>
  <text x="260" y="294" fill="#ff6a00" font-family="Barlow Condensed, Arial, sans-serif" font-size="58" font-weight="700" letter-spacing="3">LAMINATE FILMS • POUCHES • ROLL STOCK</text>
  <rect x="900" y="158" width="220" height="320" rx="20" fill="#f5f4f2" opacity="0.9"/>
  <rect x="916" y="184" width="188" height="20" rx="8" fill="#1b2b6b" opacity="0.28"/>
  <rect x="930" y="230" width="160" height="118" rx="10" fill="#1a1a1f" opacity="0.10"/>
  <rect x="930" y="358" width="160" height="84" rx="10" fill="#ff6a00" opacity="0.18"/>
  <circle cx="1010" cy="308" r="52" fill="#ff6a00" opacity="0.14"/>
  <rect x="970" y="258" width="80" height="12" rx="6" fill="#1a1a1f" opacity="0.3"/>
</svg>
